<svg id="visual" viewBox="0 0 900 600" width="900" height="600" xmlns="http://www.w3.org/2000/svg" xmlns:xlink="http://www.w3.org/1999/xlink" version="1.1"><path d="M0 169L75 180C150 191 300 213 450 205C600 197 750 159 825 140L900 121L900 0L825 0C750 0 600 0 450 0C300 0 150 0 75 0L0 0Z" fill="#070421"></path><path d="M0 223L75 235C150 247 300 271 450 260C600 249 750 203 825 180L900 157L900 119L825 138C750 157 600 195 450 203C300 211 150 189 75 178L0 167Z" fill="#070724"></path><path d="M0 295L75 304C150 313 300 331 450 327C600 323 750 297 825 284L900 271L900 155L825 178C750 201 600 247 450 258C300 269 150 245 75 233L0 221Z" fill="#060a27"></path><path d="M0 361L75 366C150 371 300 381 450 373C600 365 750 339 825 326L900 313L900 269L825 282C750 295 600 321 450 325C300 329 150 311 75 302L0 293Z" fill="#040e29"></path><path d="M0 451L75 456C150 461 300 471 450 463C600 455 750 429 825 416L900 403L900 311L825 324C750 337 600 363 450 371C300 379 150 369 75 364L0 359Z" fill="#02102c"></path><path d="M0 601L75 601C150 601 300 601 450 601C600 601 750 601 825 601L900 601L900 401L825 414C750 427 600 453 450 461C300 469 150 459 75 454L0 449Z" fill="#00132f"></path></svg>