<svg id="visual" viewBox="0 0 900 600" width="900" height="600" xmlns="http://www.w3.org/2000/svg" xmlns:xlink="http://www.w3.org/1999/xlink" version="1.1"><rect x="0" y="0" width="900" height="600" fill="#040010"></rect><defs><linearGradient id="grad1_0" x1="33.3%" y1="0%" x2="100%" y2="100%"><stop offset="20%" stop-color="#0e0841" stop-opacity="1"></stop><stop offset="80%" stop-color="#0e0841" stop-opacity="1"></stop></linearGradient></defs><defs><linearGradient id="grad1_1" x1="33.3%" y1="0%" x2="100%" y2="100%"><stop offset="20%" stop-color="#0e0841" stop-opacity="1"></stop><stop offset="80%" stop-color="#040010" stop-opacity="1"></stop></linearGradient></defs><defs><linearGradient id="grad2_0" x1="0%" y1="0%" x2="66.7%" y2="100%"><stop offset="20%" stop-color="#0e0841" stop-opacity="1"></stop><stop offset="80%" stop-color="#0e0841" stop-opacity="1"></stop></linearGradient></defs><defs><linearGradient id="grad2_1" x1="0%" y1="0%" x2="66.7%" y2="100%"><stop offset="20%" stop-color="#040010" stop-opacity="1"></stop><stop offset="80%" stop-color="#0e0841" stop-opacity="1"></stop></linearGradient></defs><g transform="translate(900, 0)"><path d="M0 378.6C-55.6 377.3 -111.2 375.9 -142.7 344.6C-174.3 313.3 -181.8 251.9 -217.8 217.8C-253.8 183.6 -318.2 176.6 -349.8 144.9C-381.3 113.1 -379.9 56.6 -378.6 0L0 0Z" fill="#100429"></path><path d="M0 189.3C-27.8 188.6 -55.6 188 -71.4 172.3C-87.1 156.6 -90.9 126 -108.9 108.9C-126.9 91.8 -159.1 88.3 -174.9 72.4C-190.7 56.6 -190 28.3 -189.3 0L0 0Z" fill="#0e0841"></path></g><g transform="translate(0, 600)"><path d="M0 -378.6C53.3 -373.2 106.5 -367.8 140.4 -339.1C174.4 -310.4 189 -258.3 225.6 -225.6C262.1 -192.8 320.6 -179.3 349.8 -144.9C378.9 -110.5 378.8 -55.2 378.6 0L0 0Z" fill="#100429"></path><path d="M0 -189.3C26.6 -186.6 53.3 -183.9 70.2 -169.5C87.2 -155.2 94.5 -129.2 112.8 -112.8C131.1 -96.4 160.3 -89.6 174.9 -72.4C189.5 -55.2 189.4 -27.6 189.3 0L0 0Z" fill="#0e0841"></path></g></svg>