<svg id="visual" viewBox="0 0 900 600" width="900" height="600" xmlns="http://www.w3.org/2000/svg" xmlns:xlink="http://www.w3.org/1999/xlink" version="1.1"><rect x="0" y="0" width="900" height="600" fill="#040010"></rect><defs><linearGradient id="grad1_0" x1="33.3%" y1="0%" x2="100%" y2="100%"><stop offset="20%" stop-color="#0e0841" stop-opacity="1"></stop><stop offset="80%" stop-color="#0e0841" stop-opacity="1"></stop></linearGradient></defs><defs><linearGradient id="grad1_1" x1="33.3%" y1="0%" x2="100%" y2="100%"><stop offset="20%" stop-color="#0e0841" stop-opacity="1"></stop><stop offset="80%" stop-color="#040010" stop-opacity="1"></stop></linearGradient></defs><defs><linearGradient id="grad2_0" x1="0%" y1="0%" x2="66.7%" y2="100%"><stop offset="20%" stop-color="#0e0841" stop-opacity="1"></stop><stop offset="80%" stop-color="#0e0841" stop-opacity="1"></stop></linearGradient></defs><defs><linearGradient id="grad2_1" x1="0%" y1="0%" x2="66.7%" y2="100%"><stop offset="20%" stop-color="#040010" stop-opacity="1"></stop><stop offset="80%" stop-color="#0e0841" stop-opacity="1"></stop></linearGradient></defs><g transform="translate(900, 0)"><path d="M0 324.5C-36.2 295.2 -72.4 265.9 -100.3 242.1C-128.1 218.2 -147.5 199.8 -183.8 183.8C-220.2 167.9 -273.5 154.4 -299.8 124.2C-326.1 93.9 -325.3 47 -324.5 0L0 0Z" fill="#100429"></path><path d="M0 162.2C-18.1 147.6 -36.2 133 -50.1 121C-64 109.1 -73.7 99.9 -91.9 91.9C-110.1 83.9 -136.8 77.2 -149.9 62.1C-163 47 -162.6 23.5 -162.2 0L0 0Z" fill="#0e0841"></path></g><g transform="translate(0, 600)"><path d="M0 -324.5C48.4 -325.9 96.9 -327.4 124.2 -299.8C151.5 -272.2 157.7 -215.6 183.1 -183.1C208.6 -150.7 253.2 -142.4 279.9 -116C306.7 -89.5 315.6 -44.7 324.5 0L0 0Z" fill="#100429"></path><path d="M0 -162.2C24.2 -163 48.4 -163.7 62.1 -149.9C75.8 -136.1 78.9 -107.8 91.6 -91.6C104.3 -75.4 126.6 -71.2 140 -58C153.3 -44.7 157.8 -22.4 162.2 0L0 0Z" fill="#0e0841"></path></g></svg>