<svg id="visual" viewBox="0 0 900 600" width="900" height="600" xmlns="http://www.w3.org/2000/svg" xmlns:xlink="http://www.w3.org/1999/xlink" version="1.1"><rect x="0" y="0" width="900" height="600" fill="#040010"></rect><path d="M0 49L75 52.2C150 55.3 300 61.7 450 62.8C600 64 750 60 825 58L900 56L900 601L825 601C750 601 600 601 450 601C300 601 150 601 75 601L0 601Z" fill="#040010"></path><path d="M0 313L75 314C150 315 300 317 450 299.8C600 282.7 750 246.3 825 228.2L900 210L900 601L825 601C750 601 600 601 450 601C300 601 150 601 75 601L0 601Z" fill="#09001c"></path><path d="M0 350L75 346C150 342 300 334 450 345.2C600 356.3 750 386.7 825 401.8L900 417L900 601L825 601C750 601 600 601 450 601C300 601 150 601 75 601L0 601Z" fill="#0c0026"></path><path d="M0 467L75 477.5C150 488 300 509 450 498.2C600 487.3 750 444.7 825 423.3L900 402L900 601L825 601C750 601 600 601 450 601C300 601 150 601 75 601L0 601Z" fill="#0c0030"></path></svg>