<svg id="visual" viewBox="0 0 900 600" width="900" height="600" xmlns="http://www.w3.org/2000/svg" xmlns:xlink="http://www.w3.org/1999/xlink" version="1.1"><rect x="0" y="0" width="900" height="600" fill="#040010"></rect><path d="M0 231L50 236C100 241 200 251 300 259.8C400 268.7 500 276.3 600 281C700 285.7 800 287.3 850 288.2L900 289L900 601L850 601C800 601 700 601 600 601C500 601 400 601 300 601C200 601 100 601 50 601L0 601Z" fill="#0b002d"></path><path d="M0 406L50 399.5C100 393 200 380 300 359.2C400 338.3 500 309.7 600 309C700 308.3 800 335.7 850 349.3L900 363L900 601L850 601C800 601 700 601 600 601C500 601 400 601 300 601C200 601 100 601 50 601L0 601Z" fill="#0b1859"></path><path d="M0 389L50 403.8C100 418.7 200 448.3 300 450.8C400 453.3 500 428.7 600 411.2C700 393.7 800 383.3 850 378.2L900 373L900 601L850 601C800 601 700 601 600 601C500 601 400 601 300 601C200 601 100 601 50 601L0 601Z" fill="#002a8a"></path></svg>