<svg id="visual" viewBox="0 0 900 600" width="900" height="600" xmlns="http://www.w3.org/2000/svg" xmlns:xlink="http://www.w3.org/1999/xlink" version="1.1"><path d="M0 511L21.5 512.3C43 513.7 86 516.3 128.8 511.3C171.7 506.3 214.3 493.7 257.2 495.5C300 497.3 343 513.7 385.8 522.3C428.7 531 471.3 532 514.2 524.2C557 516.3 600 499.7 642.8 491C685.7 482.3 728.3 481.7 771.2 490.2C814 498.7 857 516.3 878.5 525.2L900 534L900 601L878.5 601C857 601 814 601 771.2 601C728.3 601 685.7 601 642.8 601C600 601 557 601 514.2 601C471.3 601 428.7 601 385.8 601C343 601 300 601 257.2 601C214.3 601 171.7 601 128.8 601C86 601 43 601 21.5 601L0 601Z" fill="#001122" stroke-linecap="round" stroke-linejoin="miter"></path></svg>