<svg id="visual" viewBox="0 0 900 600" width="900" height="600" xmlns="http://www.w3.org/2000/svg" xmlns:xlink="http://www.w3.org/1999/xlink" version="1.1"><path d="M0 103L300 97L600 97L900 91L900 0L600 0L300 0L0 0Z" fill="#040010"></path><path d="M0 229L300 217L600 211L900 223L900 89L600 95L300 95L0 101Z" fill="#08061a"></path><path d="M0 397L300 421L600 403L900 409L900 221L600 209L300 215L0 227Z" fill="#080d24"></path><path d="M0 601L300 601L600 601L900 601L900 407L600 401L300 419L0 395Z" fill="#00132f"></path></svg>