<svg id="visual" viewBox="0 0 900 600" width="900" height="600" xmlns="http://www.w3.org/2000/svg" xmlns:xlink="http://www.w3.org/1999/xlink" version="1.1"><rect x="0" y="0" width="900" height="600" fill="#00001c"></rect><g fill="#001944"><circle r="32" cx="63" cy="571"></circle><circle r="12" cx="850" cy="399"></circle><circle r="20" cx="877" cy="40"></circle><circle r="26" cx="471" cy="447"></circle><circle r="13" cx="299" cy="307"></circle><circle r="21" cx="114" cy="21"></circle><circle r="21" cx="141" cy="283"></circle><circle r="26" cx="151" cy="156"></circle><circle r="30" cx="304" cy="413"></circle><circle r="29" cx="759" cy="215"></circle><circle r="23" cx="450" cy="211"></circle><circle r="29" cx="572" cy="173"></circle><circle r="23" cx="353" cy="351"></circle><circle r="28" cx="887" cy="241"></circle><circle r="14" cx="96" cy="190"></circle><circle r="20" cx="809" cy="513"></circle><circle r="13" cx="667" cy="526"></circle><circle r="22" cx="140" cy="366"></circle><circle r="23" cx="381" cy="587"></circle><circle r="26" cx="658" cy="372"></circle><circle r="23" cx="586" cy="315"></circle><circle r="25" cx="631" cy="104"></circle><circle r="13" cx="743" cy="82"></circle><circle r="25" cx="183" cy="516"></circle><circle r="14" cx="686" cy="173"></circle><circle r="17" cx="664" cy="258"></circle><circle r="18" cx="858" cy="586"></circle><circle r="23" cx="894" cy="336"></circle><circle r="28" cx="556" cy="464"></circle><circle r="18" cx="466" cy="571"></circle><circle r="19" cx="368" cy="507"></circle><circle r="12" cx="493" cy="312"></circle><circle r="18" cx="51" cy="313"></circle><circle r="19" cx="249" cy="568"></circle><circle r="20" cx="326" cy="112"></circle><circle r="28" cx="705" cy="448"></circle><circle r="18" cx="13" cy="380"></circle><circle r="29" cx="409" cy="390"></circle><circle r="29" cx="798" cy="8"></circle><circle r="17" cx="119" cy="465"></circle><circle r="19" cx="29" cy="22"></circle><circle r="16" cx="210" cy="297"></circle><circle r="27" cx="341" cy="210"></circle><circle r="25" cx="19" cy="251"></circle><circle r="13" cx="521" cy="217"></circle><circle r="22" cx="712" cy="329"></circle><circle r="30" cx="660" cy="6"></circle><circle r="26" cx="476" cy="69"></circle><circle r="18" cx="802" cy="146"></circle><circle r="26" cx="52" cy="480"></circle><circle r="18" cx="557" cy="6"></circle><circle r="12" cx="573" cy="539"></circle><circle r="30" cx="802" cy="441"></circle><circle r="18" cx="248" cy="490"></circle><circle r="16" cx="16" cy="111"></circle><circle r="28" cx="147" cy="588"></circle><circle r="11" cx="220" cy="55"></circle><circle r="23" cx="271" cy="206"></circle><circle r="29" cx="401" cy="256"></circle><circle r="30" cx="589" cy="407"></circle><circle r="28" cx="407" cy="132"></circle><circle r="25" cx="868" cy="134"></circle><circle r="30" cx="871" cy="498"></circle><circle r="26" cx="405" cy="15"></circle><circle r="19" cx="822" cy="262"></circle><circle r="14" cx="790" cy="363"></circle><circle r="24" cx="792" cy="583"></circle><circle r="21" cx="732" cy="19"></circle><circle r="18" cx="329" cy="30"></circle><circle r="15" cx="87" cy="407"></circle><circle r="28" cx="497" cy="510"></circle><circle r="19" cx="103" cy="97"></circle><circle r="21" cx="233" cy="393"></circle><circle r="19" cx="503" cy="134"></circle><circle r="16" cx="242" cy="147"></circle><circle r="28" cx="571" cy="69"></circle><circle r="14" cx="317" cy="558"></circle><circle r="14" cx="542" cy="362"></circle><circle r="22" cx="192" cy="449"></circle><circle r="24" cx="727" cy="591"></circle><circle r="28" cx="412" cy="322"></circle><circle r="16" cx="821" cy="82"></circle><circle r="14" cx="8" cy="179"></circle><circle r="23" cx="197" cy="227"></circle><circle r="26" cx="529" cy="598"></circle></g></svg>